<svg xmlns="http://www.w3.org/2000/svg" height="800" width="1200" viewBox="-8.91 -3.36 77.219 20.161"><path d="M.291 4.948h1.561v8.281H.291z" fill="#ffb441"/><path d="M4.471 0H6.06v13.23H4.498zm4.287 0h1.587v13.23h-1.56zm11.165 13.23h-1.56v-1.27h-.027c-.397.872-1.456 1.48-2.726 1.48-1.614 0-3.016-.952-3.016-3.174V4.92h1.588v4.895c0 1.561.9 2.143 1.878 2.143 1.323 0 2.302-.846 2.302-2.751v-4.26h1.587v8.281zm2.011-8.282h1.482v1.296h.026c.159-.502 1.164-1.508 2.646-1.508 1.217 0 2.064.53 2.593 1.535.555-1.006 1.64-1.535 2.62-1.535 2.54 0 3.148 1.826 3.148 3.678v4.815h-1.561V8.625c0-1.27-.265-2.407-1.8-2.407S28.973 7.25 28.973 8.73v4.525h-1.588v-4.34c0-1.56-.238-2.698-1.746-2.698-1.138 0-2.143.846-2.143 2.725v4.313H21.96zm14.684 0h1.588v8.281h-1.588zm3.89 0h1.56v1.27h.027c.397-.873 1.456-1.482 2.726-1.482 1.614 0 3.016.953 3.016 3.175v5.345h-1.588V8.36c0-1.561-.9-2.143-1.878-2.143-1.323 0-2.302.846-2.302 2.751v4.26H40.48v-8.28zm14.71 4.286v.53c0 1.11-.608 2.407-2.354 2.407-1.085 0-1.773-.397-1.773-1.35 0-1.322 1.826-1.587 3.307-1.587zm-4.365-2.302c.582-.45 1.164-.952 2.355-.952 1.35 0 1.984.9 1.984 1.746v.344h-1.164c-2.514 0-4.55.74-4.55 2.857 0 1.614 1.322 2.487 2.857 2.487 1.27 0 2.196-.396 2.91-1.481h.027a20 20 0 00.053 1.27h1.402c-.053-.45-.08-.926-.08-1.508V7.46c0-1.429-1.005-2.751-3.466-2.751-1.164 0-2.407.397-3.28 1.217z" fill="#616161"/><path d="M1.058.979C.476.979 0 1.455 0 2.037c0 .582.476 1.059 1.058 1.059.582 0 1.059-.477 1.059-1.059S1.64.98 1.058.98z" fill="#ffb441"/><path d="M57.812 5.212h.238v-.529h.185l.317.53h.238l-.344-.556c.186-.027.318-.133.318-.344 0-.238-.159-.397-.45-.397h-.503zm.238-1.111h.185c.159 0 .317 0 .317.185 0 .159-.158.186-.317.186h-.185zm-.926.476a1.13 1.13 0 001.137 1.138A1.13 1.13 0 0059.4 4.577a1.13 1.13 0 00-1.138-1.137 1.13 1.13 0 00-1.138 1.137zm.185 0c0-.502.423-.926.926-.926s.926.424.926.926-.423.926-.926.926-.926-.423-.926-.926z" fill="#616161"/></svg>