<svg height="690" viewBox="-4.244 0.454 229.792 61.924" width="2500" xmlns="http://www.w3.org/2000/svg"><path d="M25.663 13.368c3.98 10.099-2.508 16.58-8.97 23.073-6.016 6.632-11.315 13.527-.657 25.937C12.053 52.282 18.543 45.797 25 39.313c6.021-6.649 11.319-13.534.662-25.945" fill="#ef3e42"/><path d="M16.036.454c3.985 10.102-2.501 16.58-8.969 23.068-6.014 6.64-11.311 13.535-.65 25.942-3.984-10.103 2.505-16.58 8.966-23.068 6.018-6.64 11.31-13.533.653-25.942m163.536 39.993v20.641h9.04v-7.556h9.934v-4.519h-9.934v-4.047h19.705v16.122h9.041V44.966h8.19v-4.52m-65.372 16.162V53.03h11.789v-4.52h-11.79v-3.545h15.142v-4.518h-24.181v20.64h24.367v-4.478" fill="#00b274"/><path d="M64.83 40.447H39.78v4.519h8.005v16.122h9.04V44.966h8.005m6.846 8.3l4.182-7.989 4.004 7.989zm11.004-12.82h-9.69L61.706 61.087h5.876l1.855-3.544h12.67l1.849 3.544h10.012" fill="#ef3e42"/><path d="M140.045 40.447v10.317l-14.458-10.317h-7.017v20.64h6.188V49.73l14.845 11.356h6.628v-20.64" fill="#00b274"/><path d="M115.498 40.447H90.972v4.519h8.004v16.122h9.042V44.966h7.48" fill="#ef3e42"/></svg>