<svg xmlns="http://www.w3.org/2000/svg" height="800" width="1200" viewBox="-8.90985 -3.3602 77.2187 20.1612"><path d="M.291 4.9477h1.561v8.2815H.291z" fill="#ffb441"/><path d="M4.4715 0H6.059v13.2292H4.498zm4.2862 0h1.5875v13.2292h-1.561zm11.1654 13.2292h-1.561v-1.27h-.0265c-.3969.873-1.4552 1.4816-2.7252 1.4816-1.614 0-3.0163-.9525-3.0163-3.175V4.9212h1.5875V9.816c0 1.561.8996 2.1432 1.8786 2.1432 1.3229 0 2.3018-.8467 2.3018-2.7517V4.9477h1.5875v8.2815zm2.0109-8.2815h1.4816v1.2965h.0265c.1588-.5027 1.1642-1.5082 2.6459-1.5082 1.217 0 2.0637.5292 2.5929 1.5346.5556-1.0054 1.6404-1.5346 2.6194-1.5346 2.54 0 3.1485 1.8257 3.1485 3.6777v4.8155h-1.561V8.6254c0-1.27-.2646-2.4077-1.7992-2.4077s-2.1167 1.0319-2.1167 2.5135v4.5244h-1.5875V8.9165c0-1.561-.2381-2.6988-1.7462-2.6988-1.1377 0-2.1432.8467-2.1432 2.7252v4.3127h-1.5345zm14.6843 0h1.5875v8.2815h-1.5875zm3.8894 0h1.561v1.27h.0266c.3968-.8731 1.4552-1.4817 2.7252-1.4817 1.614 0 3.0162.9525 3.0162 3.175v5.3446h-1.5875V8.3608c0-1.561-.8996-2.143-1.8785-2.143-1.323 0-2.302.8466-2.302 2.7516v4.2598h-1.5874V4.9477zM55.2185 9.234v.5291c0 1.1113-.6085 2.4077-2.3547 2.4077-1.0848 0-1.7728-.3968-1.7728-1.3493 0-1.323 1.8257-1.5875 3.3073-1.5875zM50.853 6.932c.5821-.4497 1.1642-.9524 2.3548-.9524 1.3494 0 1.9844.8996 1.9844 1.7462v.344H54.028c-2.5135 0-4.5508.7408-4.5508 2.8575 0 1.614 1.3229 2.487 2.8575 2.487 1.27 0 2.196-.3968 2.9104-1.4816h.0265c0 .4233.0265.8467.0529 1.27h1.4023c-.0529-.4498-.0794-.926-.0794-1.5081V7.4612c0-1.4287-1.0054-2.7516-3.466-2.7516-1.1642 0-2.4077.3969-3.2809 1.217z" fill="#616161"/><path d="M1.0583.979C.4763.979 0 1.4552 0 2.0373c0 .582.4763 1.0583 1.0583 1.0583.5821 0 1.0584-.4762 1.0584-1.0583 0-.582-.4763-1.0583-1.0584-1.0583z" fill="#ffb441"/><path d="M57.8115 5.2123h.238V4.683h.1853l.3175.5292h.2381l-.344-.5556c.1853-.0265.3176-.1323.3176-.344 0-.2381-.1588-.3969-.4498-.3969h-.5027zm.238-1.1113h.1853c.1587 0 .3175 0 .3175.1852 0 .1588-.1588.1853-.3175.1853h-.1852zm-.926.4763c0 .635.5028 1.1377 1.1378 1.1377.635 0 1.1377-.5027 1.1377-1.1377 0-.635-.5027-1.1377-1.1377-1.1377-.635 0-1.1378.5027-1.1378 1.1377zm.1853 0c0-.5027.4233-.926.926-.926s.926.4233.926.926-.4233.926-.926.926-.926-.4233-.926-.926z" fill="#616161"/></svg>